<mxfile host="app.diagrams.net" modified="2024-05-03T09:31:47.245Z" agent="Mozilla/5.0 (Windows NT 10.0; Win64; x64) AppleWebKit/537.36 (KHTML, like Gecko) Chrome/124.0.0.0 Safari/537.36" etag="W3LS_05xOzFZrF4Sn2E4" version="24.3.0" type="device">
  <diagram name="Página-1" id="7fnrWQwxtzm5bAz--v1-">
    <mxGraphModel dx="1434" dy="780" grid="1" gridSize="10" guides="1" tooltips="1" connect="1" arrows="1" fold="1" page="1" pageScale="1" pageWidth="1169" pageHeight="827" math="0" shadow="0">
      <root>
        <mxCell id="0" />
        <mxCell id="1" parent="0" />
        <mxCell id="Frn_nxffmMMNWXPZTx97-61" style="edgeStyle=orthogonalEdgeStyle;rounded=0;orthogonalLoop=1;jettySize=auto;html=1;exitX=0.5;exitY=0;exitDx=0;exitDy=0;" parent="1" source="2" target="Frn_nxffmMMNWXPZTx97-54" edge="1">
          <mxGeometry relative="1" as="geometry">
            <Array as="points" />
          </mxGeometry>
        </mxCell>
        <mxCell id="2" value="BARteca" style="swimlane;fontStyle=1;align=center;verticalAlign=top;childLayout=stackLayout;horizontal=1;startSize=26.444444444444443;horizontalStack=0;resizeParent=1;resizeParentMax=0;resizeLast=0;collapsible=0;marginBottom=0;" parent="1" vertex="1">
          <mxGeometry x="548.5" y="150" width="183" height="86.44444444444444" as="geometry" />
        </mxCell>
        <mxCell id="3" style="line;strokeWidth=1;fillColor=none;align=left;verticalAlign=middle;spacingTop=-1;spacingLeft=3;spacingRight=3;rotatable=0;labelPosition=right;points=[];portConstraint=eastwest;strokeColor=inherit;" parent="2" vertex="1">
          <mxGeometry y="26.444444444444443" width="183" height="8" as="geometry" />
        </mxCell>
        <mxCell id="4" value="+void verListadoBares()" style="text;strokeColor=none;fillColor=none;align=left;verticalAlign=top;spacingLeft=4;spacingRight=4;overflow=hidden;rotatable=0;points=[[0,0.5],[1,0.5]];portConstraint=eastwest;" parent="2" vertex="1">
          <mxGeometry y="34.44444444444444" width="183" height="26" as="geometry" />
        </mxCell>
        <mxCell id="Frn_nxffmMMNWXPZTx97-65" value="+void verListadoReservas()" style="text;strokeColor=none;fillColor=none;align=left;verticalAlign=top;spacingLeft=4;spacingRight=4;overflow=hidden;rotatable=0;points=[[0,0.5],[1,0.5]];portConstraint=eastwest;" parent="2" vertex="1">
          <mxGeometry y="60.44444444444444" width="183" height="26" as="geometry" />
        </mxCell>
        <mxCell id="13" value="Bar" style="swimlane;fontStyle=1;align=center;verticalAlign=top;childLayout=stackLayout;horizontal=1;startSize=29.75;horizontalStack=0;resizeParent=1;resizeParentMax=0;resizeLast=0;collapsible=0;marginBottom=0;" parent="1" vertex="1">
          <mxGeometry x="230" y="540" width="211" height="217.75" as="geometry" />
        </mxCell>
        <mxCell id="Frn_nxffmMMNWXPZTx97-39" value="-Int id" style="text;html=1;align=left;verticalAlign=middle;whiteSpace=wrap;rounded=0;spacingLeft=4;" parent="13" vertex="1">
          <mxGeometry y="29.75" width="211" height="30" as="geometry" />
        </mxCell>
        <mxCell id="14" value="-String nombre" style="text;strokeColor=none;fillColor=none;align=left;verticalAlign=top;spacingLeft=4;spacingRight=4;overflow=hidden;rotatable=0;points=[[0,0.5],[1,0.5]];portConstraint=eastwest;" parent="13" vertex="1">
          <mxGeometry y="59.75" width="211" height="30" as="geometry" />
        </mxCell>
        <mxCell id="Frn_nxffmMMNWXPZTx97-37" value="-Int calficacion" style="text;html=1;align=left;verticalAlign=middle;whiteSpace=wrap;rounded=0;spacingLeft=4;" parent="13" vertex="1">
          <mxGeometry y="89.75" width="211" height="30" as="geometry" />
        </mxCell>
        <mxCell id="Frn_nxffmMMNWXPZTx97-34" value="-String teléfono" style="text;html=1;align=left;verticalAlign=middle;whiteSpace=wrap;rounded=0;spacingLeft=4;" parent="13" vertex="1">
          <mxGeometry y="119.75" width="211" height="30" as="geometry" />
        </mxCell>
        <mxCell id="15" value="-String ubicacion" style="text;strokeColor=none;fillColor=none;align=left;verticalAlign=top;spacingLeft=4;spacingRight=4;overflow=hidden;rotatable=0;points=[[0,0.5],[1,0.5]];portConstraint=eastwest;" parent="13" vertex="1">
          <mxGeometry y="149.75" width="211" height="30" as="geometry" />
        </mxCell>
        <mxCell id="Frn_nxffmMMNWXPZTx97-38" value="-String descripcion" style="text;html=1;align=left;verticalAlign=middle;whiteSpace=wrap;rounded=0;spacingLeft=4;" parent="13" vertex="1">
          <mxGeometry y="179.75" width="211" height="30" as="geometry" />
        </mxCell>
        <mxCell id="16" style="line;strokeWidth=1;fillColor=none;align=left;verticalAlign=middle;spacingTop=-1;spacingLeft=3;spacingRight=3;rotatable=0;labelPosition=right;points=[];portConstraint=eastwest;strokeColor=inherit;" parent="13" vertex="1">
          <mxGeometry y="209.75" width="211" height="8" as="geometry" />
        </mxCell>
        <mxCell id="18" value="Usuario" style="swimlane;fontStyle=1;align=center;verticalAlign=top;childLayout=stackLayout;horizontal=1;startSize=29.75;horizontalStack=0;resizeParent=1;resizeParentMax=0;resizeLast=0;collapsible=0;marginBottom=0;" parent="1" vertex="1">
          <mxGeometry x="548.5" y="540" width="180" height="187.75" as="geometry" />
        </mxCell>
        <mxCell id="Frn_nxffmMMNWXPZTx97-40" value="-Int id" style="text;html=1;align=left;verticalAlign=middle;whiteSpace=wrap;rounded=0;spacingLeft=4;" parent="18" vertex="1">
          <mxGeometry y="29.75" width="180" height="30" as="geometry" />
        </mxCell>
        <mxCell id="20" value="-int edad" style="text;strokeColor=none;fillColor=none;align=left;verticalAlign=top;spacingLeft=4;spacingRight=4;overflow=hidden;rotatable=0;points=[[0,0.5],[1,0.5]];portConstraint=eastwest;" parent="18" vertex="1">
          <mxGeometry y="59.75" width="180" height="30" as="geometry" />
        </mxCell>
        <mxCell id="19" value="-String nombre" style="text;strokeColor=none;fillColor=none;align=left;verticalAlign=top;spacingLeft=4;spacingRight=4;overflow=hidden;rotatable=0;points=[[0,0.5],[1,0.5]];portConstraint=eastwest;" parent="18" vertex="1">
          <mxGeometry y="89.75" width="180" height="30" as="geometry" />
        </mxCell>
        <mxCell id="Frn_nxffmMMNWXPZTx97-35" value="-String telefono" style="text;html=1;align=left;verticalAlign=middle;whiteSpace=wrap;rounded=0;spacingLeft=4;" parent="18" vertex="1">
          <mxGeometry y="119.75" width="180" height="30" as="geometry" />
        </mxCell>
        <mxCell id="Frn_nxffmMMNWXPZTx97-36" value="-String correo" style="text;html=1;align=left;verticalAlign=middle;whiteSpace=wrap;rounded=0;spacingLeft=3;" parent="18" vertex="1">
          <mxGeometry y="149.75" width="180" height="30" as="geometry" />
        </mxCell>
        <mxCell id="21" style="line;strokeWidth=1;fillColor=none;align=left;verticalAlign=middle;spacingTop=-1;spacingLeft=3;spacingRight=3;rotatable=0;labelPosition=right;points=[];portConstraint=eastwest;strokeColor=inherit;" parent="18" vertex="1">
          <mxGeometry y="179.75" width="180" height="8" as="geometry" />
        </mxCell>
        <mxCell id="23" value="Reserva" style="swimlane;fontStyle=1;align=center;verticalAlign=top;childLayout=stackLayout;horizontal=1;startSize=28.4;horizontalStack=0;resizeParent=1;resizeParentMax=0;resizeLast=0;collapsible=0;marginBottom=0;" parent="1" vertex="1">
          <mxGeometry x="920" y="540" width="195" height="182.4" as="geometry" />
        </mxCell>
        <mxCell id="Frn_nxffmMMNWXPZTx97-41" value="-Int id" style="text;html=1;align=left;verticalAlign=middle;whiteSpace=wrap;rounded=0;spacingLeft=4;" parent="23" vertex="1">
          <mxGeometry y="28.4" width="195" height="30" as="geometry" />
        </mxCell>
        <mxCell id="25" value="-Bar bar" style="text;strokeColor=none;fillColor=none;align=left;verticalAlign=top;spacingLeft=4;spacingRight=4;overflow=hidden;rotatable=0;points=[[0,0.5],[1,0.5]];portConstraint=eastwest;" parent="23" vertex="1">
          <mxGeometry y="58.4" width="195" height="28" as="geometry" />
        </mxCell>
        <mxCell id="pBb7lccBPAAVaWlLOB45-33" value="-String nombre_cliente" style="text;strokeColor=none;fillColor=none;align=left;verticalAlign=top;spacingLeft=4;spacingRight=4;overflow=hidden;rotatable=0;points=[[0,0.5],[1,0.5]];portConstraint=eastwest;" vertex="1" parent="23">
          <mxGeometry y="86.4" width="195" height="30" as="geometry" />
        </mxCell>
        <mxCell id="pBb7lccBPAAVaWlLOB45-34" value="-String telefono_cliente" style="text;html=1;align=left;verticalAlign=middle;whiteSpace=wrap;rounded=0;spacingLeft=4;" vertex="1" parent="23">
          <mxGeometry y="116.4" width="195" height="30" as="geometry" />
        </mxCell>
        <mxCell id="26" value="-Date fechaReserva" style="text;strokeColor=none;fillColor=none;align=left;verticalAlign=top;spacingLeft=4;spacingRight=4;overflow=hidden;rotatable=0;points=[[0,0.5],[1,0.5]];portConstraint=eastwest;" parent="23" vertex="1">
          <mxGeometry y="146.4" width="195" height="28" as="geometry" />
        </mxCell>
        <mxCell id="27" style="line;strokeWidth=1;fillColor=none;align=left;verticalAlign=middle;spacingTop=-1;spacingLeft=3;spacingRight=3;rotatable=0;labelPosition=right;points=[];portConstraint=eastwest;strokeColor=inherit;" parent="23" vertex="1">
          <mxGeometry y="174.4" width="195" height="8" as="geometry" />
        </mxCell>
        <mxCell id="Frn_nxffmMMNWXPZTx97-33" value="" style="curved=1;startArrow=none;endArrow=classicThin;endSize=12;exitX=0.489;exitY=1.06;entryX=0.5;entryY=0;exitDx=0;exitDy=0;entryDx=0;entryDy=0;exitPerimeter=0;endFill=1;" parent="1" source="6" target="18" edge="1">
          <mxGeometry relative="1" as="geometry">
            <Array as="points" />
            <mxPoint x="721.5360000000001" y="705.3384444444445" as="sourcePoint" />
            <mxPoint x="375" y="583.3299999999999" as="targetPoint" />
          </mxGeometry>
        </mxCell>
        <mxCell id="Frn_nxffmMMNWXPZTx97-44" style="edgeStyle=orthogonalEdgeStyle;rounded=0;orthogonalLoop=1;jettySize=auto;html=1;exitX=1;exitY=0.5;exitDx=0;exitDy=0;entryX=0.5;entryY=0;entryDx=0;entryDy=0;" parent="1" source="6" target="23" edge="1">
          <mxGeometry relative="1" as="geometry">
            <mxPoint x="814.5" y="686.7744444444444" as="sourcePoint" />
            <Array as="points">
              <mxPoint x="1018" y="423" />
              <mxPoint x="1018" y="510" />
            </Array>
            <mxPoint x="960" y="510" as="targetPoint" />
          </mxGeometry>
        </mxCell>
        <mxCell id="Frn_nxffmMMNWXPZTx97-45" style="edgeStyle=orthogonalEdgeStyle;rounded=0;orthogonalLoop=1;jettySize=auto;html=1;exitX=0;exitY=0.5;exitDx=0;exitDy=0;entryX=0.5;entryY=0;entryDx=0;entryDy=0;" parent="1" source="6" target="13" edge="1">
          <mxGeometry relative="1" as="geometry" />
        </mxCell>
        <mxCell id="Frn_nxffmMMNWXPZTx97-54" value="Login" style="swimlane;fontStyle=0;childLayout=stackLayout;horizontal=1;startSize=26;fillColor=none;horizontalStack=0;resizeParent=1;resizeParentMax=0;resizeLast=0;collapsible=1;marginBottom=0;whiteSpace=wrap;html=1;" parent="1" vertex="1">
          <mxGeometry x="570" y="20" width="140" height="78" as="geometry" />
        </mxCell>
        <mxCell id="Frn_nxffmMMNWXPZTx97-55" value="+ login()" style="text;strokeColor=none;fillColor=none;align=left;verticalAlign=top;spacingLeft=4;spacingRight=4;overflow=hidden;rotatable=0;points=[[0,0.5],[1,0.5]];portConstraint=eastwest;whiteSpace=wrap;html=1;" parent="Frn_nxffmMMNWXPZTx97-54" vertex="1">
          <mxGeometry y="26" width="140" height="26" as="geometry" />
        </mxCell>
        <mxCell id="pBb7lccBPAAVaWlLOB45-27" value="+ registrarse" style="text;strokeColor=none;fillColor=none;align=left;verticalAlign=top;spacingLeft=4;spacingRight=4;overflow=hidden;rotatable=0;points=[[0,0.5],[1,0.5]];portConstraint=eastwest;whiteSpace=wrap;html=1;" vertex="1" parent="Frn_nxffmMMNWXPZTx97-54">
          <mxGeometry y="52" width="140" height="26" as="geometry" />
        </mxCell>
        <mxCell id="pBb7lccBPAAVaWlLOB45-32" style="edgeStyle=orthogonalEdgeStyle;rounded=0;orthogonalLoop=1;jettySize=auto;html=1;exitX=0.5;exitY=0;exitDx=0;exitDy=0;" edge="1" parent="1" source="pBb7lccBPAAVaWlLOB45-28" target="2">
          <mxGeometry relative="1" as="geometry" />
        </mxCell>
        <mxCell id="pBb7lccBPAAVaWlLOB45-28" value="API" style="swimlane;fontStyle=0;childLayout=stackLayout;horizontal=1;startSize=26;fillColor=none;horizontalStack=0;resizeParent=1;resizeParentMax=0;resizeLast=0;collapsible=1;marginBottom=0;whiteSpace=wrap;html=1;" vertex="1" parent="1">
          <mxGeometry x="515" y="280" width="250" height="156" as="geometry" />
        </mxCell>
        <mxCell id="pBb7lccBPAAVaWlLOB45-29" value="+ List&amp;lt;Bar&amp;gt; devuelveBares()" style="text;strokeColor=none;fillColor=none;align=left;verticalAlign=top;spacingLeft=4;spacingRight=4;overflow=hidden;rotatable=0;points=[[0,0.5],[1,0.5]];portConstraint=eastwest;whiteSpace=wrap;html=1;" vertex="1" parent="pBb7lccBPAAVaWlLOB45-28">
          <mxGeometry y="26" width="250" height="26" as="geometry" />
        </mxCell>
        <mxCell id="pBb7lccBPAAVaWlLOB45-30" value="+ List&amp;lt;Reserva&amp;gt; devuelveReservas()" style="text;strokeColor=none;fillColor=none;align=left;verticalAlign=top;spacingLeft=4;spacingRight=4;overflow=hidden;rotatable=0;points=[[0,0.5],[1,0.5]];portConstraint=eastwest;whiteSpace=wrap;html=1;" vertex="1" parent="pBb7lccBPAAVaWlLOB45-28">
          <mxGeometry y="52" width="250" height="26" as="geometry" />
        </mxCell>
        <mxCell id="Frn_nxffmMMNWXPZTx97-42" value="+void borrarBar()" style="text;strokeColor=none;fillColor=none;align=left;verticalAlign=top;spacingLeft=4;spacingRight=4;overflow=hidden;rotatable=0;points=[[0,0.5],[1,0.5]];portConstraint=eastwest;" parent="pBb7lccBPAAVaWlLOB45-28" vertex="1">
          <mxGeometry y="78" width="250" height="26" as="geometry" />
        </mxCell>
        <mxCell id="5" value="+void añadirBar()" style="text;strokeColor=none;fillColor=none;align=left;verticalAlign=top;spacingLeft=4;spacingRight=4;overflow=hidden;rotatable=0;points=[[0,0.5],[1,0.5]];portConstraint=eastwest;" parent="pBb7lccBPAAVaWlLOB45-28" vertex="1">
          <mxGeometry y="104" width="250" height="26" as="geometry" />
        </mxCell>
        <mxCell id="6" value="+void hacerReserva()" style="text;strokeColor=none;fillColor=none;align=left;verticalAlign=top;spacingLeft=4;spacingRight=4;overflow=hidden;rotatable=0;points=[[0,0.5],[1,0.5]];portConstraint=eastwest;" parent="pBb7lccBPAAVaWlLOB45-28" vertex="1">
          <mxGeometry y="130" width="250" height="26" as="geometry" />
        </mxCell>
      </root>
    </mxGraphModel>
  </diagram>
</mxfile>
